<svg width="34" height="34" viewBox="0 0 34 34" fill="none" xmlns="http://www.w3.org/2000/svg">
<path d="M6.94149 25.3868L1.98713 21.49C1.71649 21.2864 1.62788 20.927 1.79032 20.6918C2.58439 19.5418 4.11408 19.149 5.61707 19.7092L10.0978 22.251L6.94149 25.3868Z" fill="#42A8C3"/>
<path d="M8.60449 27.0485L12.5116 32.0131C12.7152 32.2837 13.0745 32.3723 13.3098 32.2099L13.6051 32.0059C14.5779 31.3343 14.91 30.0404 14.4362 28.7691L11.7506 23.9023L8.60449 27.0485Z" fill="#42A8C3"/>
<path d="M7.22988 20.623L4.42676 23.408L6.94082 25.3855L10.0972 22.2495L7.22988 20.623Z" fill="#219FC0"/>
<path d="M8.28296 10.124C7.66076 9.50178 7.61154 8.51037 8.1674 7.82828C8.96246 6.85263 9.95855 5.76623 10.5561 5.16871C11.3735 4.35126 11.4449 4.44892 12.3183 3.91357C12.4469 3.83473 12.6128 3.85374 12.7195 3.96038L14.4466 5.68752C14.5533 5.79416 14.5722 5.96011 14.4934 6.0887C13.9581 6.96207 14.0558 7.03342 13.2383 7.85087C12.6408 8.44839 11.5544 9.44449 10.5787 10.2395C9.89657 10.7953 8.9051 10.7462 8.28296 10.124Z" fill="#FFBFAB"/>
<path d="M23.8757 25.7158C23.2535 25.0936 23.2043 24.1022 23.7602 23.4201C24.5552 22.4444 25.5513 21.358 26.1488 20.7605C26.9663 19.9431 27.0376 20.0407 27.9111 19.5054C28.0397 19.4265 28.2056 19.4455 28.3123 19.5522L30.0394 21.2793C30.146 21.386 30.165 21.5519 30.0862 21.6805C29.5509 22.5539 29.6485 22.6252 28.8311 23.4427C28.2335 24.0403 27.1472 25.0364 26.1715 25.8314C25.4893 26.3872 24.4979 26.338 23.8757 25.7158Z" fill="#FFBFAB"/>
<path d="M16.0831 16.0145L22.1956 9.90206L3.26056 3.95285C2.87065 3.8533 2.48302 3.94809 2.22508 4.20604L0.625339 5.80577C0.089597 6.34152 0.319545 7.32361 1.07586 7.72973L16.0831 16.0145Z" fill="#42A8C3"/>
<path d="M17.9167 8.55664L12.46 14.0134L16.0827 16.0133L22.1951 9.90085L17.9167 8.55664Z" fill="#219FC0"/>
<path d="M17.9863 17.9171L24.0988 11.8047L30.048 30.7397C30.1475 31.1296 30.0527 31.5173 29.7948 31.7752L28.195 33.3749C27.6593 33.9107 26.6772 33.6807 26.2711 32.9244L17.9863 17.9171Z" fill="#42A8C3"/>
<path d="M29.5242 9.23522L19.2555 19.5039C17.5324 21.227 15.7006 22.8341 13.7827 24.3053L8.89704 28.0533C7.76599 28.921 6.4208 29.0259 5.69782 28.3029C4.97484 27.5799 5.07979 26.2348 5.9475 25.1037L9.69542 20.218C11.1666 18.3002 12.7737 16.4684 14.4969 14.7453L24.7656 4.47663C26.1694 3.07285 27.7816 1.90325 29.4848 1.10026C30.9516 0.408787 32.5106 -0.0244158 33.2679 0.732876C34.0252 1.49017 33.592 3.04922 32.9005 4.51595C32.0976 6.21927 30.928 7.83144 29.5242 9.23522Z" fill="#E0F3FC"/>
<path d="M33.2676 0.733268C33.0011 0.466732 32.6349 0.348112 32.2087 0.335938C32.2394 1.12461 31.8974 2.12487 31.4444 3.08555C30.6415 4.78874 29.4719 6.40098 28.0681 7.80475L17.7994 18.0734C16.0764 19.7965 14.2445 21.4036 12.3267 22.8748L7.44101 26.6227C6.72161 27.1746 5.91575 27.4174 5.23828 27.3353C5.28919 27.7113 5.44095 28.0465 5.69759 28.3032C6.42057 29.0262 7.76575 28.9212 8.89681 28.0535L13.7825 24.3056C15.7003 22.8344 17.5321 21.2273 19.2552 19.5042L29.5239 9.23555C30.9277 7.83177 32.0973 6.21953 32.9003 4.51634C33.5917 3.04961 34.0249 1.49056 33.2676 0.733268Z" fill="#C3D3DB"/>
<path d="M30.3744 7.26919L30.0238 7.61984C29.6981 7.94549 26.0553 4.30266 26.3809 3.97701L26.7316 3.62636C26.9526 3.40533 27.277 3.33567 27.5412 3.45253C28.8576 4.03482 29.966 5.14328 30.5483 6.45962C30.665 6.72375 30.5955 7.04816 30.3744 7.26919Z" fill="#51C4F5"/>
<path d="M6.80662 27.682C6.68169 27.682 6.55669 27.6344 6.46138 27.539C6.27069 27.3483 6.27069 27.0391 6.46138 26.8485L10.7254 22.5844C10.9161 22.3937 11.2253 22.3937 11.4159 22.5844C11.6066 22.7751 11.6066 23.0843 11.4159 23.2749L7.15187 27.539C7.05656 27.6343 6.93162 27.682 6.80662 27.682Z" fill="#42A8C3" fill-opacity="0.92"/>
</svg>
