<svg width="40" height="40" viewBox="0 0 40 40" fill="none" xmlns="http://www.w3.org/2000/svg">
<g clip-path="url(#clip0_3539_5263)">
<path d="M8.83336 13H0V40H8.83336V13Z" fill="#E8EAEA"/>
<path d="M40.0004 13H31.167V40H40.0004V13Z" fill="#E8EAEA"/>
<path d="M0 13.4994H40C40 12.4994 39.1666 11.666 38.1666 11.666H1.83336C0.833359 11.666 0 12.4994 0 13.4994Z" fill="#FFA679"/>
<path d="M31.1664 8.5H8.83301V40H31.1664V8.5Z" fill="#F2F2F2"/>
<path d="M32.4169 6.66602H7.58363C7.08363 6.66602 6.66699 7.08266 6.66699 7.58266C6.66699 8.08266 7.08363 8.49937 7.58363 8.49937H32.417C32.917 8.49937 33.3336 8.08273 33.3336 7.58273C33.3336 7.08273 32.9169 6.66602 32.4169 6.66602Z" fill="#FFA679"/>
<path d="M6.33336 15.5H2.5V19.75H6.33336V15.5Z" fill="#42A8C3"/>
<path d="M6.33336 21.416H2.5V25.666H6.33336V21.416Z" fill="#42A8C3"/>
<path d="M6.33336 27.334H2.5V31.584H6.33336V27.334Z" fill="#42A8C3"/>
<path d="M6.33336 33.25H2.5V37.5H6.33336V33.25Z" fill="#42A8C3"/>
<path d="M37.5004 15.5H33.667V19.75H37.5004V15.5Z" fill="#42A8C3"/>
<path d="M37.5004 21.416H33.667V25.666H37.5004V21.416Z" fill="#42A8C3"/>
<path d="M37.5004 27.334H33.667V31.584H37.5004V27.334Z" fill="#42A8C3"/>
<path d="M37.5004 33.25H33.667V37.5H37.5004V33.25Z" fill="#42A8C3"/>
<path d="M15.4997 22.916H11.333V27.166H15.4997V22.916Z" fill="#8ECBDB"/>
<path d="M24.4166 29.584H15.5V40.0006H24.4166V29.584Z" fill="#056D8A"/>
<path d="M40 38.25H0V40H40V38.25Z" fill="#ACB3BA"/>
<path d="M15.4997 11.084H11.333V15.334H15.4997V11.084Z" fill="#8ECBDB"/>
<path d="M15.4997 17H11.333V21.25H15.4997V17Z" fill="#8ECBDB"/>
<path d="M22.0826 11.084H17.916V15.334H22.0826V11.084Z" fill="#8ECBDB"/>
<path d="M22.0826 17H17.916V21.25H22.0826V17Z" fill="#8ECBDB"/>
<path d="M22.0826 22.918H17.916V27.168H22.0826V22.918Z" fill="#8ECBDB"/>
<path d="M28.6666 11.084H24.5V15.334H28.6666V11.084Z" fill="#8ECBDB"/>
<path d="M28.6666 17H24.5V21.25H28.6666V17Z" fill="#8ECBDB"/>
<path d="M28.6666 22.918H24.5V27.168H28.6666V22.918Z" fill="#8ECBDB"/>
</g>
<defs>
<clipPath id="clip0_3539_5263">
<rect width="40" height="40" fill="white"/>
</clipPath>
</defs>
</svg>
