<svg width="11" height="11" viewBox="0 0 11 11" fill="none" xmlns="http://www.w3.org/2000/svg">
<g clip-path="url(#clip0_4306_7882)">
<path d="M2.34636 3.45312H0V10.625H2.34636V3.45312Z" fill="#E8EAEA"/>
<path d="M10.6247 3.45312H8.27832V10.625H10.6247V3.45312Z" fill="#E8EAEA"/>
<path d="M0 3.5866H10.625C10.625 3.32097 10.4036 3.09961 10.138 3.09961H0.486986C0.221361 3.09961 0 3.32097 0 3.5866Z" fill="#FFA679"/>
<path d="M8.27898 2.25781H2.34668V10.625H8.27898V2.25781Z" fill="#F2F2F2"/>
<path d="M8.61033 1.77148H2.01399C1.88118 1.77148 1.77051 1.88215 1.77051 2.01497C1.77051 2.14778 1.88118 2.25847 2.01399 2.25847H8.61035C8.74316 2.25847 8.85383 2.1478 8.85383 2.01499C8.85383 1.88218 8.74314 1.77148 8.61033 1.77148Z" fill="#FFA679"/>
<path d="M1.6823 4.11719H0.664062V5.24609H1.6823V4.11719Z" fill="#42A8C3"/>
<path d="M1.6823 5.68945H0.664062V6.81836H1.6823V5.68945Z" fill="#42A8C3"/>
<path d="M1.6823 7.25977H0.664062V8.38867H1.6823V7.25977Z" fill="#42A8C3"/>
<path d="M1.6823 8.83203H0.664062V9.96094H1.6823V8.83203Z" fill="#42A8C3"/>
<path d="M9.96062 4.11719H8.94238V5.24609H9.96062V4.11719Z" fill="#42A8C3"/>
<path d="M9.96062 5.68945H8.94238V6.81836H9.96062V5.68945Z" fill="#42A8C3"/>
<path d="M9.96062 7.25977H8.94238V8.38867H9.96062V7.25977Z" fill="#42A8C3"/>
<path d="M9.96062 8.83203H8.94238V9.96094H9.96062V8.83203Z" fill="#42A8C3"/>
<path d="M4.11751 6.08789H3.01074V7.2168H4.11751V6.08789Z" fill="#8ECBDB"/>
<path d="M6.48567 7.85742H4.11719V10.6243H6.48567V7.85742Z" fill="#056D8A"/>
<path d="M10.625 10.1602H0V10.625H10.625V10.1602Z" fill="#8ECBDB"/>
<path d="M4.11751 2.94336H3.01074V4.07227H4.11751V2.94336Z" fill="#8ECBDB"/>
<path d="M4.11751 4.51562H3.01074V5.64453H4.11751V4.51562Z" fill="#8ECBDB"/>
<path d="M5.86653 2.94336H4.75977V4.07227H5.86653V2.94336Z" fill="#8ECBDB"/>
<path d="M5.86653 4.51562H4.75977V5.64453H5.86653V4.51562Z" fill="#8ECBDB"/>
<path d="M5.86653 6.08594H4.75977V7.21484H5.86653V6.08594Z" fill="#8ECBDB"/>
<path d="M7.61458 2.94336H6.50781V4.07227H7.61458V2.94336Z" fill="#8ECBDB"/>
<path d="M7.61458 4.51562H6.50781V5.64453H7.61458V4.51562Z" fill="#8ECBDB"/>
<path d="M7.61458 6.08594H6.50781V7.21484H7.61458V6.08594Z" fill="#8ECBDB"/>
</g>
<defs>
<clipPath id="clip0_4306_7882">
<rect width="10.625" height="10.625" fill="white"/>
</clipPath>
</defs>
</svg>
