<svg width="36" height="36" viewBox="0 0 36 36" fill="none" xmlns="http://www.w3.org/2000/svg">
<path d="M15.1875 0H6.1875C5.60531 0 5.13281 0.4725 5.13281 1.05469V6.70289C5.13281 7.28578 5.60531 7.75758 6.1875 7.75758H15.1875C15.7697 7.75758 16.2422 7.28578 16.2422 6.70289V1.05469C16.2422 0.4725 15.7697 0 15.1875 0ZM14.1328 5.6482L10.6588 7.26539L7.24219 5.6482V2.10938H14.1328V5.6482Z" fill="#525C74"/>
<path d="M16.2427 1.05469V6.70289C16.2427 7.28578 15.7702 7.75758 15.188 7.75758H10.6592V7.3357L14.1333 5.6482V2.10938H10.6592V0H15.188C15.7702 0 16.2427 0.4725 16.2427 1.05469Z" fill="#444E66"/>
<path d="M20.3203 9.56219L19.8984 32.4137C19.8984 34.4373 18.6173 34.6637 16.5938 34.6637L10.1672 35.9997H7.19578L6.25781 35.6481L5.08641 35.9997H3.67031C1.64672 35.9997 0 34.353 0 32.3294V12.2763L0.421875 11.2497L0 10.1669V9.3175C0 7.29391 1.64672 5.64648 3.67031 5.64648H5.13L6.11719 6.32781L7.24219 5.64648H10.1672L13.9922 7.17156L17.5078 6.39813C19.0388 11.0535 20.314 7.59857 20.3203 9.56219Z" fill="#68B9CF"/>
<path d="M21.318 9.31708V32.3288C21.318 34.3525 19.6711 35.9994 17.6474 35.9994H10.6592V6.2793L11.7886 5.64648H17.6475C19.6712 5.64648 21.318 7.29327 21.318 9.31708Z" fill="#68B9CF"/>
<path d="M21.3173 10.1669H12.2766V5.64648H10.1672V10.1669H7.23291L7.23938 5.64648H5.13L5.12353 10.1669H0V12.2763H5.12051L5.08641 35.9997H7.19578L7.22988 12.2763H10.1672V35.9997H12.2766V12.2763H21.3173V10.1669Z" fill="#4AB7D3"/>
<path d="M21.318 10.1641H11.7886V5.64648H10.6592V35.9994H11.7886V12.2817H21.318V10.1641Z" fill="#42A8C3"/>
<path d="M26.1652 14.6816H19.9985C18.0009 14.6816 16.376 16.3066 16.376 18.3042V20.2581C16.376 20.8425 16.8503 21.3169 17.4348 21.3169H28.7289C29.3134 21.3169 29.7877 20.8426 29.7877 20.2581V18.3042C29.7877 16.3066 28.1628 14.6816 26.1652 14.6816ZM27.6701 19.1993L23.0818 20.254L18.4936 19.1993V18.3042C18.4936 17.4741 19.1684 16.7992 19.9985 16.7992H26.1652C26.9953 16.7992 27.6701 17.474 27.6701 18.3042V19.1993H27.6701Z" fill="#525C74"/>
<path d="M29.7879 18.3043V20.2582C29.7879 20.8426 29.3136 21.317 28.7291 21.317H23.082V20.5353L27.6703 19.1994V18.3043C27.6703 17.4742 26.9954 16.7993 26.1653 16.7993H23.082V14.6816H26.1653C28.163 14.6817 29.7879 16.3066 29.7879 18.3043Z" fill="#444E66"/>
<path d="M36.0003 22.2402V32.9583C36.0003 34.6347 34.6358 35.9992 32.9594 35.9992H13.206C11.5295 35.9992 10.165 34.6347 10.165 32.9583V22.2402C10.165 20.5637 11.5295 19.1992 13.206 19.1992H32.9594C34.6358 19.1992 36.0003 20.5636 36.0003 22.2402Z" fill="#FFCAAF"/>
<path d="M35.9997 22.2402V32.9583C35.9997 34.6347 34.6352 35.9992 32.9588 35.9992H23.082V19.1992H32.9588C34.6352 19.1992 35.9997 20.5636 35.9997 22.2402Z" fill="#FFBFAB"/>
</svg>
