<svg width="9" height="9" viewBox="0 0 9 9" fill="none" xmlns="http://www.w3.org/2000/svg">
<path d="M3.79688 0H1.54688C1.40133 0 1.2832 0.118125 1.2832 0.263672V1.67572C1.2832 1.82145 1.40133 1.93939 1.54688 1.93939H3.79688C3.94242 1.93939 4.06055 1.82145 4.06055 1.67572V0.263672C4.06055 0.118125 3.94242 0 3.79688 0ZM3.5332 1.41205L2.6647 1.81635L1.81055 1.41205V0.527344H3.5332V1.41205Z" fill="#525C74"/>
<path d="M4.06092 0.263672V1.67572C4.06092 1.82145 3.94279 1.93939 3.79725 1.93939H2.66504V1.83393L3.53357 1.41205V0.527344H2.66504V0H3.79725C3.94279 0 4.06092 0.118125 4.06092 0.263672Z" fill="#444E66"/>
<path d="M5.08008 2.39104L4.97461 8.10393C4.97461 8.60982 4.65434 8.66643 4.14844 8.66643L2.5418 9.00041H1.79895L1.56445 8.91252L1.2716 9.00041H0.917578C0.41168 9.00041 0 8.58873 0 8.08283V3.06955L0.105469 2.81291L0 2.54221V2.32986C0 1.82396 0.41168 1.41211 0.917578 1.41211H1.2825L1.5293 1.58244L1.81055 1.41211H2.5418L3.49805 1.79338L4.37695 1.60002C4.7597 2.76387 5.0785 1.90013 5.08008 2.39104Z" fill="#68B9CF"/>
<path d="M5.32975 2.32976V8.08269C5.32975 8.58863 4.91803 9.00034 4.4121 9.00034H2.66504V1.57031L2.9474 1.41211H4.41211C4.91805 1.41211 5.32975 1.82381 5.32975 2.32976Z" fill="#68B9CF"/>
<path d="M5.32934 2.54221H3.06914V1.41211H2.5418V2.54221H1.80823L1.80984 1.41211H1.2825L1.28088 2.54221H0V3.06955H1.28013L1.2716 9.00041H1.79895L1.80747 3.06955H2.5418V9.00041H3.06914V3.06955H5.32934V2.54221Z" fill="#4AB7D3"/>
<path d="M5.32975 2.54152H2.9474V1.41211H2.66504V9.00034H2.9474V3.07092H5.32975V2.54152Z" fill="#42A8C3"/>
<path d="M6.54105 3.66992H4.99939C4.49998 3.66992 4.09375 4.07615 4.09375 4.57556V5.06404C4.09375 5.21015 4.21233 5.32875 4.35846 5.32875H7.18198C7.32811 5.32875 7.44669 5.21017 7.44669 5.06404V4.57556C7.44669 4.07615 7.04046 3.66992 6.54105 3.66992ZM6.91727 4.79933L5.77021 5.063L4.62315 4.79933V4.57556C4.62315 4.36804 4.79185 4.19932 4.99939 4.19932H6.54105C6.74857 4.19932 6.91729 4.36802 6.91729 4.57556V4.79933H6.91727Z" fill="#525C74"/>
<path d="M7.44699 4.57558V5.06406C7.44699 5.21017 7.3284 5.32877 7.18228 5.32877H5.77051V5.13334L6.91757 4.79935V4.57558C6.91757 4.36805 6.74885 4.19934 6.54133 4.19934H5.77051V3.66992H6.54133C7.04076 3.66994 7.44699 4.07617 7.44699 4.57558Z" fill="#444E66"/>
<path d="M8.99983 5.56102V8.24054C8.99983 8.65966 8.65871 9.00078 8.2396 9.00078H3.30125C2.88214 9.00078 2.54102 8.65966 2.54102 8.24054V5.56102C2.54102 5.1419 2.88214 4.80078 3.30125 4.80078H8.2396C8.65871 4.80078 8.99983 5.14189 8.99983 5.56102Z" fill="#FFCAAF"/>
<path d="M8.99993 5.56102V8.24054C8.99993 8.65966 8.65881 9.00078 8.23969 9.00078H5.77051V4.80078H8.23969C8.65881 4.80078 8.99993 5.14189 8.99993 5.56102Z" fill="#FFBFAB"/>
</svg>
