<svg width="34" height="34" viewBox="0 0 34 34" fill="none" xmlns="http://www.w3.org/2000/svg">
<path d="M5.65107 20.6167L13.5051 28.4689C13.8778 28.839 14.3818 29.0467 14.9071 29.0467C15.4324 29.0467 15.9364 28.839 16.3092 28.4689L27.5471 17.231C28.3854 16.2964 28.8731 15.0997 28.9268 13.8453L28.8498 7.25825C28.8401 6.7291 28.6254 6.22439 28.2508 5.8505C27.8763 5.47661 27.3712 5.26276 26.842 5.25404L20.2747 5.19141C19.0203 5.24794 17.8241 5.73666 16.889 6.57467L5.65107 17.8126C5.28095 18.1853 5.07324 18.6893 5.07324 19.2146C5.07324 19.7399 5.28095 20.2439 5.65107 20.6167ZM23.5744 9.1873C23.5744 8.90699 23.6576 8.63298 23.8133 8.39991C23.969 8.16684 24.1904 7.98519 24.4493 7.87792C24.7083 7.77065 24.9933 7.74258 25.2682 7.79727C25.5431 7.85196 25.7957 7.98694 25.9939 8.18514C26.1921 8.38335 26.3271 8.63588 26.3817 8.91081C26.4364 9.18573 26.4084 9.47069 26.3011 9.72966C26.1938 9.98864 26.0122 10.21 25.7791 10.3657C25.546 10.5214 25.272 10.6046 24.9917 10.6046C24.6158 10.6046 24.2553 10.4552 23.9895 10.1895C23.7238 9.92367 23.5744 9.56318 23.5744 9.1873ZM11.7747 22.3364C11.6825 22.2443 11.6093 22.1349 11.5594 22.0146C11.5095 21.8942 11.4838 21.7652 11.4838 21.6349C11.4838 21.5046 11.5095 21.3756 11.5594 21.2552C11.6093 21.1348 11.6825 21.0255 11.7747 20.9334L12.4922 20.2158C12.1963 19.7622 11.9842 19.2591 11.8659 18.7306C11.7398 18.2592 11.739 17.7631 11.8636 17.2913C11.9882 16.8196 12.2339 16.3886 12.5763 16.041C13.0636 15.5557 13.7101 15.2633 14.3962 15.2178C14.8491 15.1886 15.3035 15.2401 15.7383 15.3699H15.7419C16.1144 15.4873 16.4695 15.654 16.7977 15.8656H16.8031C17.0861 16.0503 17.3489 16.2645 17.5869 16.5045C17.7302 16.6483 17.8852 16.78 18.0503 16.8981C18.2309 17.0273 18.4292 17.1298 18.6391 17.2024H18.6427C18.8375 17.2663 19.0433 17.2894 19.2475 17.2704H19.2511C19.4601 17.2536 19.6577 17.168 19.813 17.027C19.9266 16.8989 20.004 16.7428 20.0373 16.5749C20.0707 16.407 20.0587 16.2332 20.0027 16.0714C19.8774 15.5894 19.6238 15.1503 19.269 14.8009C19.1406 14.6907 19.0029 14.5919 18.8574 14.5056L18.8037 14.4716C18.6214 14.3601 18.4284 14.2672 18.2275 14.1942C18.0415 14.1245 17.8446 14.0881 17.6459 14.0869C17.383 14.0869 17.1308 13.9824 16.9449 13.7965C16.759 13.6106 16.6545 13.3584 16.6545 13.0955C16.6545 12.8326 16.759 12.5804 16.9449 12.3945C17.1308 12.2086 17.383 12.1041 17.6459 12.1041C18.0842 12.1059 18.5205 12.1859 18.9308 12.3404C19.2616 12.4623 19.5788 12.6182 19.8774 12.8056L19.8953 12.8164L20.6075 12.1006C20.6997 12.0084 20.8092 11.9354 20.9297 11.8856C21.0501 11.8358 21.1792 11.8102 21.3096 11.8103C21.44 11.8103 21.569 11.8361 21.6894 11.8861C21.8098 11.936 21.9192 12.0092 22.0113 12.1015C22.1035 12.1937 22.1765 12.3032 22.2263 12.4236C22.2761 12.5441 22.3017 12.6732 22.3016 12.8036C22.3016 12.9339 22.2758 13.063 22.2258 13.1834C22.1759 13.3038 22.1027 13.4132 22.0104 13.5053L21.3161 14.1978C21.6055 14.6368 21.8157 15.1232 21.9371 15.6348C22.0667 16.1233 22.0682 16.6369 21.9416 17.1262C21.815 17.6154 21.5644 18.0638 21.2141 18.4281C20.7387 18.8938 20.1176 19.1818 19.4551 19.2441C18.969 19.294 18.478 19.2397 18.0145 19.0849C17.6161 18.9509 17.2398 18.7586 16.8979 18.514C16.6441 18.332 16.4058 18.1291 16.1857 17.9074C16.0465 17.7676 15.893 17.6428 15.7276 17.5352C15.5491 17.4209 15.3566 17.3301 15.155 17.265C14.9528 17.2067 14.7422 17.1837 14.5322 17.197C14.3246 17.2111 14.129 17.2994 13.9811 17.4457C13.8916 17.5334 13.6858 17.741 13.8075 18.319C13.9301 18.8132 14.1857 19.2643 14.5465 19.6235C14.704 19.766 14.8714 19.8969 15.0476 20.0154C15.2203 20.127 15.4038 20.2212 15.5952 20.2964C15.7774 20.3665 15.9737 20.3923 16.1678 20.3715C16.2978 20.3621 16.4283 20.3784 16.552 20.4194C16.6756 20.4605 16.79 20.5255 16.8885 20.6107C16.987 20.696 17.0678 20.7998 17.1262 20.9163C17.1847 21.0327 17.2196 21.1596 17.229 21.2895C17.2384 21.4195 17.2221 21.55 17.181 21.6737C17.14 21.7973 17.075 21.9117 16.9897 22.0102C16.9045 22.1088 16.8007 22.1895 16.6842 22.2479C16.5677 22.3064 16.4409 22.3413 16.311 22.3507C16.2179 22.3578 16.1267 22.3596 16.039 22.3596C15.6183 22.3642 15.2011 22.2825 14.8132 22.1198C14.4943 21.9918 14.1901 21.8298 13.9059 21.6367L13.888 21.6241L13.1776 22.3364C12.9915 22.5216 12.7396 22.6256 12.477 22.6256C12.2144 22.6256 11.9626 22.5216 11.7764 22.3364H11.7747Z" fill="#42A8C3"/>
</svg>
